cover 
http://img529.imageshack.us/img529/9311/18thangeldisplay.jpg

"Satan will no longer be beast... but beauty!" That declaration comes early in The Eighteenth Angel, signaling the kind of horror movie we're in for: thick and cheesy. When that line (and others like it) is uttered by mad monk Maximilian Schell, it's even creamier. Schell is ushering in the return of the Antichrist by genetically engineering Satan's minions, but he needs the transplanted faces of beautiful humans to complete the task. Enter Rachael Leigh Cook (pre-She's All That), who travels with dad Christopher McDonald to Italy, perilously close to Schell's monastery-laboratory. The movie has lots of Omen- style devilry, and it's somehow reassuring to see Omen screenwriter David Seltzer still flogging the old 666 gimmick. 

Actors: Christopher McDonald, Rachael Leigh Cook, Stanley Tucci, Wendy Crewson, Maximilian Schell
Directors: William Bindley
Language: English
VIDEO:
Codec ID : XVID
Codec ID/Hint : XviD
Duration : 1h 28mn
Bit rate : 1 105 Kbps
Width : 720 pixels
Height : 480 pixels
Display aspect ratio : 16:9
Frame rate : 23.976 fps
Standard : NTSC
Resolution : 24 bits
Colorimetry : 4:2:0
Scan type : Progressive
Bits/(Pixel*Frame) : 0.133
Stream size : 697 MiB (86%)
Writing library : XviD 1.1.2 (UTC 2006-11-01)

Audio
ID : 1
Format : MPEG Audio
Format version : Version 1
Format profile : Layer 3
Format settings, Mode : Joint stereo / MS Stereo
Codec ID : 55
Codec ID/Hint : MP3
Duration : 1h 28mn
Bit rate mode : Constant
Bit rate : 160 Kbps
Channel(s) : 2 channels
Sampling rate : 48.0 KHz
Resolution : 16 bits
Stream size : 101 MiB (13%)
Alignment : Split accross interleaves
Interleave, duration : 24 ms (0.58 video frame)
Writing library : LAME3.98

screens 
http://img716.imageshack.us/img716/9136/vlcsnap2010103007h25m38.png 
http://img204.imageshack.us/img204/5866/vlcsnap2010103007h29m30.png 
http://img837.imageshack.us/img837/2773/vlcsnap2010103007h30m03.png 
http://img695.imageshack.us/img695/6176/vlcsnap2010103007h34m58.png 
http://img535.imageshack.us/img535/671/vlcsnap2010103007h35m51.png 
http://img834.imageshack.us/img834/6683/vlcsnap2010103007h42m45.png